<?xml version="1.0" standalone="no"?>
<!DOCTYPE svg PUBLIC "-//W3C//DTD SVG 20010904//EN"
 "http://www.w3.org/TR/2001/REC-SVG-20010904/DTD/svg10.dtd">
<svg version="1.0" xmlns="http://www.w3.org/2000/svg"
 width="1555.000000pt" height="1128.000000pt" viewBox="0 0 1555.000000 1128.000000"
 preserveAspectRatio="xMidYMid meet">
<metadata>
Created by potrace 1.11, written by Peter Selinger 2001-2013
</metadata>
<g transform="translate(0.000000,1128.000000) scale(0.100000,-0.100000)"
fill="#000000" stroke="none">
<path d="M7375 11213 c-337 -20 -533 -38 -745 -69 -555 -81 -1022 -245 -1380
-485 -355 -237 -655 -588 -824 -964 -230 -514 -371 -1432 -336 -2195 39 -860
193 -1543 439 -1950 314 -520 769 -877 1371 -1077 58 -19 119 -38 135 -43 148
-41 208 -55 332 -81 419 -86 838 -120 1478 -120 691 -1 1112 36 1560 136 615
138 1053 361 1396 712 147 149 208 225 320 393 229 347 378 850 453 1530 36
329 40 399 40 710 1 656 -90 1282 -256 1770 -118 345 -295 629 -557 891 -337
337 -741 550 -1301 688 -148 36 -218 51 -399 81 -121 21 -419 51 -641 65 -208
13 -913 19 -1085 8z m-1187 -1914 c138 -34 222 -79 315 -168 89 -85 140 -168
207 -337 18 -43 41 -98 51 -122 11 -23 37 -86 58 -140 39 -96 72 -176 211
-512 40 -96 99 -238 130 -315 32 -77 81 -196 110 -265 72 -174 109 -263 175
-425 31 -77 65 -158 74 -180 85 -186 104 -273 98 -435 -3 -105 -8 -137 -32
-200 -73 -197 -238 -358 -436 -425 -241 -82 -520 -14 -704 170 -84 84 -121
145 -193 318 -30 73 -72 175 -94 227 -22 52 -64 154 -93 225 -47 117 -98 240
-245 595 -44 106 -225 542 -342 825 -147 357 -167 449 -133 614 60 295 282
513 574 565 91 16 157 13 269 -15z m1782 11 c174 -30 352 -142 448 -282 44
-64 62 -103 166 -359 53 -129 105 -254 116 -279 26 -61 255 -612 325 -785 78
-190 105 -256 240 -580 170 -407 178 -433 179 -585 1 -172 -30 -273 -125 -405
-83 -116 -218 -217 -344 -260 -120 -40 -289 -44 -405 -10 -155 47 -298 148
-378 267 -60 91 -66 104 -235 518 -30 74 -74 180 -97 235 -23 55 -65 159 -95
230 -29 72 -75 184 -103 250 -126 303 -228 549 -269 650 -25 61 -68 164 -95
230 -93 224 -116 290 -134 385 -20 110 -12 190 32 322 65 197 245 373 444 436
123 39 196 44 330 22z m1870 -11 c147 -37 288 -126 374 -235 49 -63 97 -157
163 -319 25 -60 56 -135 68 -165 95 -230 125 -315 135 -392 58 -419 -279 -799
-701 -789 -201 4 -422 118 -538 275 -50 68 -67 101 -157 318 -188 452 -205
502 -205 634 0 350 270 652 621 693 86 10 135 6 240 -20z"/>
<path d="M132 2935 c-21 -9 -38 -27 -48 -50 -18 -43 -20 -35 88 -370 44 -137
116 -362 160 -500 44 -137 87 -270 95 -295 21 -65 38 -87 77 -100 27 -9 41 -8
71 4 41 17 53 41 89 174 13 48 55 200 94 337 39 138 75 270 82 294 7 27 15 40
21 34 5 -5 58 -186 118 -403 123 -440 125 -446 202 -444 67 2 90 35 142 204
25 80 68 217 97 305 28 88 64 201 80 250 15 50 53 169 84 266 31 97 56 192 56
211 0 57 -64 107 -120 93 -41 -10 -68 -44 -89 -109 -46 -141 -172 -540 -207
-649 -20 -65 -40 -115 -44 -110 -5 4 -29 82 -54 173 -120 440 -178 636 -192
657 -31 49 -102 53 -143 9 -12 -13 -32 -61 -45 -107 -30 -111 -196 -710 -202
-728 -7 -21 -19 -3 -37 54 -43 137 -202 638 -219 690 -28 84 -35 95 -73 111
-41 17 -42 17 -83 -1z"/>
<path d="M2274 2935 c-35 -18 -32 -13 -196 -375 -142 -315 -196 -434 -233
-515 -147 -321 -155 -349 -114 -394 31 -33 66 -44 105 -31 43 15 59 39 123
185 29 66 58 126 63 133 8 9 77 12 302 10 l291 -3 69 -151 c73 -163 86 -178
153 -178 45 0 93 49 93 94 0 17 -62 166 -141 342 -78 172 -161 356 -184 408
-142 318 -199 438 -218 457 -29 30 -75 37 -113 18z m152 -565 c52 -117 94
-218 94 -226 0 -12 -35 -14 -199 -14 -110 0 -202 3 -204 8 -8 13 196 463 206
453 5 -5 51 -104 103 -221z"/>
<path d="M4684 2934 c-17 -8 -36 -26 -43 -40 -8 -18 -11 -198 -11 -619 l0
-595 29 -32 c24 -27 36 -33 71 -33 35 0 47 6 71 33 l29 32 1 398 c1 218 0 407
-1 419 -1 12 3 30 8 38 7 13 15 6 44 -37 68 -99 610 -823 639 -853 24 -24 37
-29 71 -29 34 1 47 8 70 33 l28 31 0 600 0 600 -29 32 c-24 27 -36 33 -71 33
-35 0 -47 -6 -71 -33 l-29 -32 0 -431 c0 -336 -3 -430 -12 -427 -17 6 -454
586 -643 855 -50 70 -92 86 -151 57z"/>
<path d="M9415 2941 c-11 -5 -29 -19 -40 -31 -19 -21 -20 -38 -22 -619 -2
-462 0 -602 10 -621 7 -14 29 -33 50 -43 31 -16 42 -17 72 -7 64 21 65 28 65
415 0 216 4 345 10 345 9 0 48 -79 258 -519 96 -203 109 -225 139 -238 36 -15
78 -9 105 14 9 8 40 67 69 131 109 243 280 598 294 612 13 12 15 -29 15 -342
l0 -356 25 -30 c14 -17 39 -33 55 -37 38 -8 94 18 109 51 8 18 11 196 11 619
l0 595 -29 32 c-24 27 -36 33 -69 33 -69 0 -64 7 -239 -365 -247 -523 -298
-630 -305 -630 -5 0 -23 30 -40 68 -17 37 -73 154 -124 261 -52 107 -94 195
-94 197 0 16 -212 433 -227 446 -24 22 -71 31 -98 19z"/>
<path d="M11043 2930 c-17 -10 -37 -28 -43 -40 -8 -15 -10 -147 -8 -453 l3
-432 27 -69 c71 -184 204 -289 413 -324 80 -14 104 -14 176 -3 111 18 181 44
255 97 96 67 160 166 190 294 17 72 20 856 3 894 -6 13 -29 32 -50 41 -36 17
-41 17 -83 1 -30 -12 -47 -25 -55 -44 -7 -17 -11 -175 -13 -442 -3 -409 -3
-416 -26 -465 -26 -56 -82 -119 -127 -142 -79 -42 -194 -54 -276 -29 -68 21
-99 39 -140 83 -83 87 -89 125 -89 598 0 417 1 408 -60 440 -38 20 -59 19 -97
-5z"/>
<path d="M12730 2940 c-154 -29 -271 -105 -316 -207 -21 -48 -24 -181 -5 -246
20 -67 93 -145 178 -189 67 -35 170 -72 393 -143 131 -41 187 -75 213 -127 15
-31 16 -43 7 -80 -14 -52 -39 -81 -94 -106 -45 -21 -150 -42 -213 -42 -76 0
-218 31 -308 67 -107 43 -145 46 -180 13 -20 -19 -25 -33 -25 -73 0 -42 4 -53
30 -77 73 -68 294 -124 490 -124 322 1 506 128 518 358 5 108 -19 176 -87 239
-66 62 -134 94 -356 167 -221 73 -290 105 -333 155 -26 29 -32 44 -32 81 0 39
5 51 33 79 85 85 343 91 540 14 103 -41 177 -9 177 76 0 68 -46 99 -210 142
-74 20 -125 26 -235 29 -77 1 -160 -1 -185 -6z"/>
<path d="M13813 2931 c-17 -11 -37 -29 -42 -40 -8 -13 -11 -213 -11 -613 0
-659 -4 -625 67 -655 43 -18 93 -4 123 34 20 25 20 39 20 624 l0 599 -27 30
c-37 40 -86 48 -130 21z"/>
<path d="M14830 2944 c-152 -30 -303 -124 -396 -247 -99 -132 -135 -244 -135
-417 1 -174 41 -296 136 -421 100 -129 225 -206 396 -242 91 -19 108 -20 187
-8 164 23 273 75 386 181 86 81 102 121 71 179 -17 34 -63 55 -103 47 -16 -4
-54 -32 -88 -67 -70 -71 -137 -112 -220 -133 -291 -75 -554 147 -554 467 0
185 105 359 259 430 55 26 82 31 162 35 124 5 181 -11 290 -83 97 -64 127 -69
170 -26 35 36 39 89 9 131 -29 41 -146 116 -227 146 -56 21 -90 26 -193 29
-69 2 -136 1 -150 -1z"/>
<path d="M3274 2920 c-12 -4 -31 -21 -43 -36 -21 -27 -21 -29 -21 -606 0 -642
-2 -626 65 -654 43 -17 87 -9 117 23 22 24 23 30 28 271 l5 247 198 3 198 2
129 -265 c120 -247 132 -267 164 -280 47 -20 91 -9 122 28 40 47 30 84 -90
329 -58 119 -106 219 -106 222 0 3 16 12 35 22 94 44 164 142 186 257 21 114
-25 273 -96 336 -50 43 -152 89 -225 101 -78 12 -636 12 -666 0z m672 -209
c61 -28 97 -80 102 -150 7 -94 -43 -168 -129 -191 -22 -6 -132 -9 -266 -8
l-228 3 -3 170 c-1 93 0 175 2 182 4 10 58 13 243 13 211 0 243 -3 279 -19z"/>
<path d="M6150 2917 c-14 -7 -33 -28 -42 -47 -16 -32 -18 -81 -18 -588 0 -606
0 -606 59 -636 26 -14 87 -16 436 -16 l407 0 29 29 c49 49 35 128 -28 160 -15
7 -129 11 -352 11 l-331 0 0 179 0 180 191 3 191 3 29 33 c37 41 39 89 5 129
l-24 28 -194 5 -193 5 0 165 0 165 328 5 329 5 24 28 c33 38 33 96 0 134 l-24
28 -399 3 c-306 1 -404 -1 -423 -11z"/>
<path d="M7424 2914 c-17 -8 -36 -26 -43 -40 -17 -39 -15 -1193 3 -1216 7 -10
30 -25 50 -33 31 -13 44 -14 72 -5 65 22 68 36 74 305 l5 240 196 3 195 2 130
-262 c111 -227 134 -266 162 -282 29 -16 39 -17 73 -7 49 15 82 62 75 106 -2
17 -52 128 -110 247 -58 120 -106 221 -106 226 0 5 27 26 60 46 63 39 93 72
131 146 21 40 24 59 24 160 0 97 -3 122 -21 161 -48 103 -149 176 -283 205
-99 21 -644 20 -687 -2z m702 -216 c55 -39 78 -81 79 -148 0 -71 -26 -124 -79
-158 l-41 -27 -250 0 -250 0 -3 170 c-1 93 0 175 3 183 4 11 52 13 253 10
l249 -3 39 -27z"/>
<path d="M6432 858 c-9 -9 -12 -80 -12 -258 0 -144 -5 -270 -11 -303 -27 -133
-153 -196 -275 -136 -48 23 -84 68 -104 132 -10 32 -16 37 -41 37 -39 0 -47
-35 -24 -98 43 -110 161 -181 286 -169 105 9 178 61 223 157 19 42 21 66 24
333 4 299 1 317 -37 317 -9 0 -22 -5 -29 -12z"/>
<path d="M6981 832 c-10 -20 -87 -187 -171 -371 -161 -354 -170 -386 -116
-386 27 0 32 7 75 102 26 56 52 107 58 115 16 19 361 25 384 6 9 -7 36 -56 59
-108 51 -114 56 -120 86 -120 52 0 42 32 -125 400 -88 194 -167 363 -176 376
-23 36 -51 30 -74 -14z m86 -189 c73 -159 112 -256 107 -264 -3 -5 -70 -9
-150 -9 -111 0 -146 3 -150 13 -5 15 136 337 149 337 4 0 24 -35 44 -77z"/>
<path d="M8546 848 c-8 -13 -35 -70 -61 -128 -26 -58 -73 -161 -105 -230 -31
-69 -83 -183 -115 -253 -62 -134 -64 -158 -18 -165 27 -4 43 19 88 123 21 50
42 94 47 99 13 15 372 18 390 3 8 -7 27 -41 43 -77 61 -142 66 -150 91 -150
13 0 28 9 34 20 9 18 -15 78 -156 388 -91 202 -171 373 -176 380 -16 19 -46
14 -62 -10z m114 -287 c40 -88 70 -167 67 -175 -5 -13 -30 -15 -151 -15 -80 0
-148 4 -151 8 -2 5 26 76 64 157 37 82 71 157 74 167 4 9 10 17 15 17 5 0 42
-72 82 -159z"/>
<path d="M9152 857 c-9 -11 -12 -116 -10 -398 l3 -384 24 -3 c49 -7 51 8 51
331 0 165 4 296 9 293 4 -3 107 -145 227 -316 209 -296 220 -310 249 -307 l30
2 3 384 c1 275 -1 388 -9 397 -16 20 -47 17 -59 -5 -6 -12 -10 -131 -10 -316
0 -191 -4 -295 -10 -293 -5 2 -26 26 -45 53 -417 597 -421 601 -453 562z"/>
<path d="M7611 846 c-8 -9 -11 -119 -9 -386 3 -343 4 -374 21 -384 12 -8 22
-8 35 0 15 10 17 32 20 173 1 88 6 161 10 161 4 1 84 2 177 3 181 2 205 8 263
61 57 51 83 172 53 248 -18 47 -79 105 -128 122 -63 22 -424 23 -442 2z m433
-84 c90 -52 86 -195 -6 -252 -30 -18 -48 -20 -193 -18 l-160 3 -3 139 c-2 89
1 142 8 146 6 3 80 5 166 3 129 -2 162 -6 188 -21z"/>
</g>
</svg>
